HIERARCHY
ROOT root     
{
	OFFSET 0.0000 0.0000 0.0000
	CHANNELS 6 Xposition Yposition Zposition Zrotation Yrotation Xrotation
	JOINT pelvis   
	{
		OFFSET 0.0000 0.0000 0.0000
		CHANNELS 3 Zrotation Yrotation Xrotation
		JOINT thorax   
		{
			OFFSET 0.0000 23.0750 -5.0000
			CHANNELS 3 Zrotation Yrotation Xrotation
			JOINT rclavicle
			{
				OFFSET 0.0000 28.0009 0.0000
				CHANNELS 3 Zrotation Yrotation Xrotation
				JOINT rhumerus 
				{
					OFFSET -18.5725 5.5939 0.0000
					CHANNELS 3 Zrotation Yrotation Xrotation
					JOINT rradius  
					{
						OFFSET -24.8459 0.0000 0.0000
						CHANNELS 3 Zrotation Yrotation Xrotation
						JOINT rhand    
						{
							OFFSET -24.5477 0.0000 0.0000
							CHANNELS 3 Zrotation Yrotation Xrotation
							End Site
							{
								OFFSET -8.1826 0.0000 0.0000
							}
						}
					}
				}
			}
			JOINT lclavicle
			{
				OFFSET 0.0000 28.0009 0.0000
				CHANNELS 3 Zrotation Yrotation Xrotation
				JOINT lhumerus 
				{
					OFFSET 18.5725 5.5939 0.0000
					CHANNELS 3 Zrotation Yrotation Xrotation
					JOINT lradius  
					{
						OFFSET 24.8459 0.0000 0.0000
						CHANNELS 3 Zrotation Yrotation Xrotation
						JOINT lhand    
						{
							OFFSET 24.5477 0.0000 0.0000
							CHANNELS 3 Zrotation Yrotation Xrotation
							End Site
							{
								OFFSET 8.1826 0.0000 0.0000
							}
						}
					}
				}
			}
			JOINT head     
			{
				OFFSET 0.0000 35.2030 0.0000
				CHANNELS 3 Zrotation Yrotation Xrotation
				End Site
				{
					OFFSET 0.0000 11.7343 0.0000
				}
			}
		}
		JOINT rfemur   
		{
			OFFSET -8.2817 0.0000 0.0000
			CHANNELS 3 Zrotation Yrotation Xrotation
			JOINT rtibia   
			{
				OFFSET 0.0000 -43.3627 0.0000
				CHANNELS 3 Zrotation Yrotation Xrotation
				JOINT rfoot    
				{
					OFFSET 0.0000 -38.2947 0.0000
					CHANNELS 3 Zrotation Yrotation Xrotation
					JOINT rtoes    
					{
						OFFSET 0.0000 0.0000 16.6054
						CHANNELS 3 Zrotation Yrotation Xrotation
						End Site
						{
							OFFSET 0.0000 0.0000 5.5351
						}
					}
				}
			}
		}
		JOINT lfemur   
		{
			OFFSET 8.2817 0.0000 0.0000
			CHANNELS 3 Zrotation Yrotation Xrotation
			JOINT ltibia   
			{
				OFFSET 0.0000 -43.3627 0.0000
				CHANNELS 3 Zrotation Yrotation Xrotation
				JOINT lfoot    
				{
					OFFSET 0.0000 -38.2947 0.0000
					CHANNELS 3 Zrotation Yrotation Xrotation
					JOINT ltoes    
					{
						OFFSET 0.0000 0.0000 16.6054
						CHANNELS 3 Zrotation Yrotation Xrotation
						End Site
						{
							OFFSET 0.0000 0.0000 5.5351
						}
					}
				}
			}
		}
	}
}
MOTION
Frames: 8
Frame Time: .0333333
27.654 79.034 5.6108 13.8845 -87.8685 22.1903 0 -0 0 1.21867 -14.3843 13.8283 22.3862 -13.3986 -3.7342e-05 52.5271 10.1691 28.0719 180 62.4329 180 -17.3631 8.94637 -1.36879 -15.1853 4.00748 2.53592e-05 -61.423 2.50398 6.83352 -180 -50.4559 180 13.464 -3.60232 -0.425306 5.00302 4.50725 -27.1986 12.7124 -23.7738 -68.4822 -0 -0 50.0535 1.97313e-08 0.858601 -0.306196 -0.00459993 5.3135e-08 -66.6936 -16.8588 17.2899 -69.2162 -0 -0 52.0669 -2.96898e-06 8.26126 -6.52936 -0.945906 -4.58985e-06 -41.287 
27.609 79.074 5.636 11.0659 -87.9823 24.9499 0 -0 0 1.67923 -14.8724 13.5488 22.4839 -13.4891 4.4536e-05 52.4461 10.3183 28.1672 180 62.5079 180 -17.3593 8.91303 -1.36336 -14.8893 3.71262 -1.1845e-05 -61.7338 2.26431 6.19798 -180 -50.6283 180 13.4987 -3.50871 -0.415397 5.14316 4.60856 -27.1301 12.7584 -23.7254 -68.2896 -0 -0 49.8388 7.82e-08 0.9545 -0.229698 -0.00379991 6.29371e-08 -66.7 -16.8312 17.4578 -69.1472 -0 -0 52.0243 5.47429e-06 8.22808 -6.5643 -0.947111 -7.84058e-06 -41.3058 
27.557 79.12 5.664 7.81091 -88.0739 28.1565 0 -0 0 2.16055 -15.3695 13.2489 22.5729 -13.5795 6.08094e-05 52.3888 10.4601 28.2626 180 62.5847 180 -17.3528 8.8852 -1.35858 -14.5656 3.42405 -9.17476e-06 -61.9904 1.91316 5.54586 -180 -50.8361 180 13.5605 -3.35858 -0.399387 5.28781 4.71645 -27.0489 12.8019 -23.6739 -68.0715 -0 -0 49.5995 1.08787e-07 1.0549 -0.142293 -0.00259993 -2.25608e-08 -66.7166 -16.8004 17.6383 -69.0604 -0 -0 51.9669 3.04023e-06 8.19575 -6.59875 -0.948188 -1.70489e-06 -41.3269 
27.496 79.174 5.6957 4.25093 -88.1751 31.6572 0 -0 0 2.64889 -15.8715 12.9325 22.6571 -13.671 5.08284e-05 52.3487 10.5952 28.3619 180 62.6696 180 -17.348 8.86067 -1.3544 -14.2075 3.15422 -9.63964e-06 -62.1776 1.42358 4.88625 -180 -51.0936 180 13.6396 -3.15053 -0.376892 5.4372 4.83367 -26.9548 12.8324 -23.6164 -67.8272 -0 -0 49.3362 4.02812e-09 1.159 -0.0438998 -0.000900008 -5.6135e-09 -66.7453 -16.776 17.8357 -68.9514 -0 -0 51.8913 5.10263e-06 8.16364 -6.63194 -0.949185 -8.01259e-06 -41.35 
27.427 79.234 5.7313 0.212912 -88.3055 35.613 0 -0 0 3.14605 -16.3754 12.6022 22.7328 -13.7634 -2.37992e-05 52.3335 10.7202 28.4665 180 62.7555 180 -17.3415 8.84005 -1.35072 -13.8153 2.91398 1.98711e-05 -62.2684 0.760736 4.22962 -180 -51.4196 180 13.7327 -2.88029 -0.346906 5.58211 4.95879 -26.8465 12.8489 -23.5547 -67.5552 -0 -0 49.05 3.15844e-09 1.26592 0.0670995 0.0015 -1.19081e-08 -66.7849 -16.7565 18.0491 -68.8163 -0 -0 51.797 1.00822e-06 8.13252 -6.66299 -0.94989 3.23927e-06 -41.375 
27.349 79.301 5.7716 -4.28261 -88.4438 40.0135 0 -0 0 3.64238 -16.8785 12.262 22.8018 -13.8582 6.69776e-05 52.3386 10.8323 28.5766 180 62.8394 180 -17.3361 8.82046 -1.34726 -13.3829 2.71313 1.39454e-06 -62.2474 -0.105346 3.5784 -180 -51.8268 180 13.8212 -2.55263 -0.309419 5.71992 5.08995 -26.7225 12.8413 -23.4882 -67.2499 -0 -0 48.7421 -4.23268e-08 1.37445 0.190303 0.00459992 5.83386e-09 -66.8393 -16.7459 18.2778 -68.6502 -0 -0 51.6832 1.81492e-06 8.10291 -6.69091 -0.950286 7.8682e-06 -41.4016 
27.264 79.375 5.8165 -9.50209 -88.5713 45.1288 0 -0 0 4.1499 -17.3776 11.9137 22.8505 -13.9558 -2.24114e-05 52.3759 10.9249 28.6863 180 62.9238 180 -17.3242 8.80601 -1.3441 -12.9162 2.55948 -5.10205e-06 -62.0795 -1.21482 2.9362 -180 -52.3348 180 13.9072 -2.1609 -0.263592 5.8351 5.22112 -26.5815 12.814 -23.4198 -66.912 -0 -0 48.4111 2.17691e-07 1.48343 0.327407 0.00850001 5.94959e-09 -66.9098 -16.7368 18.5181 -68.4509 -0 -0 51.5473 -1.85766e-06 8.07789 -6.71446 -0.950702 4.39585e-06 -41.4328 
27.171 79.455 5.8669 -15.4332 -88.7228 50.9299 0 -0 0 4.64676 -17.8661 11.56 22.8914 -14.0595 -0.00010853 52.4339 10.998 28.8007 180 62.9973 180 -17.3139 8.79016 -1.34086 -12.3996 2.45684 1.80946e-05 -61.7636 -2.58249 2.28668 -180 -52.9642 180 13.9598 -1.72111 -0.210706 5.93507 5.34846 -26.4205 12.7549 -23.3501 -66.5422 -0 -0 48.0633 5.18508e-08 1.59128 0.476411 0.0132001 2.09061e-08 -66.9927 -16.7359 18.7667 -68.2121 -0 -0 51.3867 -3.0226e-06 8.05985 -6.73207 -0.950994 4.37144e-06 -41.463 
